<svg width="410" height="100" viewBox="0 0 410 100" fill="none" xmlns="http://www.w3.org/2000/svg">
<g clip-path="url(#clip0_1538_2)">
<path d="M100 0H50V50L100 0Z" fill="black"/>
<path d="M50 50L25 25L50 0H0V100H50L25 75H75L100 50H50Z" fill="black"/>
<path d="M100 100V75H75L50 100H100Z" fill="black"/>
<path d="M140 31.25H147.268V49.3902L163.691 31.25H172.389L154.649 50.8208L173.534 71.25H164.835L147.268 52.2514V71.25H140V31.25Z" fill="black"/>
<path d="M188.457 31.25H181.19V71.25H188.457V31.25Z" fill="black"/>
<path d="M207.975 37.2586H195.901V31.25H227.317V37.2586H215.242V71.25H207.975V37.2586Z" fill="black"/>
<path d="M234.748 31.25H261.816V37.2586H242.016V47.8165H258.153V53.8251H242.016V65.2414H261.816V71.25H234.748V31.25Z" fill="black"/>
<path d="M308.984 31.25H336.051V37.2586H316.251V47.8165H332.389V53.8251H316.251V65.2414H336.051V71.25H308.984V31.25Z" fill="black"/>
<path d="M353.875 37.2586H341.801V31.25H373.217V37.2586H361.142V71.25H353.875V37.2586Z" fill="black"/>
<path d="M379.181 31.25V37.2586H398.458L376.018 70.8999V71.25H409.509V65.2407H387.555L410 31.6002V31.25H379.181Z" fill="black"/>
<path d="M296.729 52.717C301.697 47.8632 301.64 39.844 296.729 34.9332C294.273 32.4773 291.045 31.25 287.12 31.25H269.854V71.2499H277.122V56.4001H284.913L292.744 71.2499H300.183L291.949 55.6509C293.767 55.0441 295.371 54.0756 296.729 52.717ZM277.122 37.2586H285.863C290.181 37.2586 293.145 40.2043 293.145 43.8251C293.145 47.4459 290.181 50.3915 285.863 50.3915H277.122V37.2586Z" fill="black"/>
</g>
<defs>
<clipPath id="clip0_1538_2">
<rect width="410" height="100" fill="white"/>
</clipPath>
</defs>
</svg>